<?xml version="1.0" encoding="UTF-8" standalone="no"?>
<svg
   viewBox="-3 -3 38 38"
   version="1.1"
   id="svg417"
   sodipodi:docname="download.svg"
   inkscape:version="1.2.2 (732a01da63, 2022-12-09)"
   xmlns:inkscape="http://www.inkscape.org/namespaces/inkscape"
   xmlns:sodipodi="http://sodipodi.sourceforge.net/DTD/sodipodi-0.dtd"
   xmlns="http://www.w3.org/2000/svg"
   xmlns:svg="http://www.w3.org/2000/svg">
  <defs
     id="defs421">
    <filter
       style="color-interpolation-filters:sRGB;"
       inkscape:label="Invert"
       id="filter619"
       x="0"
       y="0"
       width="1"
       height="1">
      <feColorMatrix
         type="hueRotate"
         values="180"
         result="color1"
         id="feColorMatrix615" />
      <feColorMatrix
         values="-1 0 0 0 1 0 -1 0 0 1 0 0 -1 0 1 -0.21 -0.72 -0.07 2 0 "
         result="fbSourceGraphic"
         id="feColorMatrix617" />
      <feColorMatrix
         result="fbSourceGraphicAlpha"
         in="fbSourceGraphic"
         values="0 0 0 -1 0 0 0 0 -1 0 0 0 0 -1 0 0 0 0 1 0"
         id="feColorMatrix621" />
      <feColorMatrix
         id="feColorMatrix623"
         type="hueRotate"
         values="180"
         result="color1"
         in="fbSourceGraphic" />
      <feColorMatrix
         id="feColorMatrix625"
         values="-1 0 0 0 1 0 -1 0 0 1 0 0 -1 0 1 -0.21 -0.72 -0.07 2 0 "
         result="fbSourceGraphic" />
      <feColorMatrix
         result="fbSourceGraphicAlpha"
         in="fbSourceGraphic"
         values="0 0 0 -1 0 0 0 0 -1 0 0 0 0 -1 0 0 0 0 1 0"
         id="feColorMatrix627" />
      <feColorMatrix
         id="feColorMatrix629"
         type="hueRotate"
         values="180"
         result="color1"
         in="fbSourceGraphic" />
      <feColorMatrix
         id="feColorMatrix631"
         values="-1 0 0 0 1 0 -1 0 0 1 0 0 -1 0 1 -0.21 -0.72 -0.07 2 0 "
         result="fbSourceGraphic" />
      <feColorMatrix
         result="fbSourceGraphicAlpha"
         in="fbSourceGraphic"
         values="0 0 0 -1 0 0 0 0 -1 0 0 0 0 -1 0 0 0 0 1 0"
         id="feColorMatrix633" />
      <feColorMatrix
         id="feColorMatrix635"
         type="hueRotate"
         values="180"
         result="color1"
         in="fbSourceGraphic" />
      <feColorMatrix
         id="feColorMatrix637"
         values="-1 0 0 0 1 0 -1 0 0 1 0 0 -1 0 1 -0.21 -0.72 -0.07 2 0 "
         result="color2" />
    </filter>
  </defs>
  <sodipodi:namedview
     id="namedview419"
     pagecolor="#ffffff"
     bordercolor="#000000"
     borderopacity="0.25"
     inkscape:showpageshadow="2"
     inkscape:pageopacity="0.0"
     inkscape:pagecheckerboard="0"
     inkscape:deskcolor="#d1d1d1"
     showgrid="false"
     inkscape:zoom="10.578947"
     inkscape:cx="20.748756"
     inkscape:cy="16.68408"
     inkscape:window-width="1920"
     inkscape:window-height="991"
     inkscape:window-x="-9"
     inkscape:window-y="-9"
     inkscape:window-maximized="1"
     inkscape:current-layer="svg417" />
  <g
     id="g543"
     transform="matrix(1.5789474,0,0,1.6184211,-9.1686304,-9.3337914)"
     style="filter:url(#filter619)">
    <g
       id="deeditor_bgCarrier"
       stroke-width="0">
      <rect
         id="dee_c_e"
         x="4.2592578"
         y="4.2530551"
         width="23.531719"
         height="23.197701"
         rx="11.692415"
         fill="#000000"
         strokewidth="0"
         ry="11.526448" />
    </g>
    <path
       d="M 15.999,4 C 9.373,4 4,9.373 4,16.001 c 0,5.301 3.438,9.799 8.207,11.386 0.6,0.11 0.819,-0.26 0.819,-0.578 0,-0.285 -0.01,-1.04 -0.016,-2.041 C 9.672,25.493 8.968,23.159 8.968,23.159 8.422,21.773 7.636,21.404 7.636,21.404 c -1.09,-0.745 0.082,-0.729 0.082,-0.729 1.204,0.085 1.838,1.237 1.838,1.237 1.07,1.834 2.809,1.304 3.492,0.997 0.109,-0.775 0.419,-1.304 0.762,-1.604 -2.665,-0.303 -5.466,-1.332 -5.466,-5.931 0,-1.31 0.468,-2.381 1.235,-3.22 C 9.456,11.85 9.044,10.63 9.697,8.978 c 0,0 1.008,-0.323 3.3,1.23 0.957,-0.266 1.984,-0.399 3.004,-0.404 1.019,0.005 2.046,0.138 3.004,0.404 2.291,-1.553 3.297,-1.23 3.297,-1.23 0.655,1.652 0.243,2.872 0.119,3.176 0.769,0.839 1.233,1.91 1.233,3.22 0,4.61 -2.806,5.624 -5.479,5.921 0.431,0.37 0.815,1.103 0.815,2.222 0,1.604 -0.015,2.898 -0.015,3.292 0,0.321 0.216,0.694 0.825,0.577 C 24.565,25.795 28,21.301 28,16.001 28,9.373 22.627,4 15.999,4 Z"
       fill-rule="evenodd"
       clip-rule="evenodd"
       fill="#ffffff"
       id="path415" />
  </g>
</svg>
