<?xml version="1.0" encoding="UTF-8" standalone="no"?>
<!-- Generator: Adobe Illustrator 19.1.1, SVG Export Plug-In . SVG Version: 6.00 Build 0)  -->

<svg
   version="1.1"
   id="Layer_1"
   x="0px"
   y="0px"
   viewBox="0 0 36.57143 48"
   xml:space="preserve"
   sodipodi:docname="Google-Docs.svg"
   width="36.57143"
   height="48"
   inkscape:version="1.2.2 (732a01da63, 2022-12-09)"
   xmlns:inkscape="http://www.inkscape.org/namespaces/inkscape"
   xmlns:sodipodi="http://sodipodi.sourceforge.net/DTD/sodipodi-0.dtd"
   xmlns="http://www.w3.org/2000/svg"
   xmlns:svg="http://www.w3.org/2000/svg"><defs
   id="defs222" /><sodipodi:namedview
   id="namedview220"
   pagecolor="#ffffff"
   bordercolor="#000000"
   borderopacity="0.25"
   inkscape:showpageshadow="2"
   inkscape:pageopacity="0.0"
   inkscape:pagecheckerboard="0"
   inkscape:deskcolor="#d1d1d1"
   showgrid="true"
   inkscape:zoom="16.145833"
   inkscape:cx="18.301935"
   inkscape:cy="24"
   inkscape:window-width="1920"
   inkscape:window-height="991"
   inkscape:window-x="-9"
   inkscape:window-y="-9"
   inkscape:window-maximized="1"
   inkscape:current-layer="Layer_1"><inkscape:grid
     type="xygrid"
     id="grid384"
     originx="0"
     originy="0" /></sodipodi:namedview>
<path
   style="fill:#2196f3;stroke-width:1.14286"
   d="M 33.142858,48 H 3.4285718 C 1.5348572,48 0,46.465142 0,44.571428 V 3.4285715 C 0,1.5348572 1.5348572,0 3.4285718,0 H 25.142858 l 11.42857,11.428572 V 44.571428 C 36.571428,46.465142 35.036572,48 33.142858,48 Z"
   id="path203" />
<polygon
   style="fill:#bbdefb"
   points="30,13 30,3 40,13 "
   id="polygon205"
   transform="matrix(1.1428572,0,0,1.1428572,-9.1428571,-3.4285715)" />
<polygon
   style="fill:#1565c0"
   points="40,23 40,13 30,13 "
   id="polygon207"
   transform="matrix(1.1428572,0,0,1.1428572,-9.1428571,-3.4285715)" />
<g
   id="g217"
   transform="matrix(1.1428572,0,0,1.1428572,-9.1428571,-3.4285715)">
	<rect
   x="15"
   y="23"
   style="fill:#e3f2fd"
   width="18"
   height="2"
   id="rect209" />
	<rect
   x="15"
   y="27"
   style="fill:#e3f2fd"
   width="18"
   height="2"
   id="rect211" />
	<rect
   x="15"
   y="31"
   style="fill:#e3f2fd"
   width="18"
   height="2"
   id="rect213" />
	<rect
   x="15"
   y="35"
   style="fill:#e3f2fd"
   width="10"
   height="2"
   id="rect215" />
</g>
</svg>
