<?xml version="1.0" encoding="UTF-8" standalone="no"?>
<!-- Generator: Adobe Illustrator 15.0.0, SVG Export Plug-In . SVG Version: 6.00 Build 0)  -->

<svg
   version="1.1"
   x="0px"
   y="0px"
   width="48px"
   height="48px"
   viewBox="0 0 48 48"
   enable-background="new 0 0 48 48"
   xml:space="preserve"
   id="svg12"
   sodipodi:docname="Linkedin.svg"
   inkscape:version="1.2.2 (732a01da63, 2022-12-09)"
   xmlns:inkscape="http://www.inkscape.org/namespaces/inkscape"
   xmlns:sodipodi="http://sodipodi.sourceforge.net/DTD/sodipodi-0.dtd"
   xmlns="http://www.w3.org/2000/svg"
   xmlns:svg="http://www.w3.org/2000/svg"><defs
   id="defs16" /><sodipodi:namedview
   id="namedview14"
   pagecolor="#ffffff"
   bordercolor="#000000"
   borderopacity="0.25"
   inkscape:showpageshadow="2"
   inkscape:pageopacity="0.0"
   inkscape:pagecheckerboard="0"
   inkscape:deskcolor="#d1d1d1"
   showgrid="false"
   inkscape:zoom="16.75"
   inkscape:cx="21.820896"
   inkscape:cy="24.029851"
   inkscape:window-width="1920"
   inkscape:window-height="991"
   inkscape:window-x="-9"
   inkscape:window-y="-9"
   inkscape:window-maximized="1"
   inkscape:current-layer="svg12" />

<g
   id="g183"
   transform="matrix(1.3333333,0,0,1.3333333,-7.9999986,-7.9999998)"><path
     fill="#0288d1"
     d="m 42,37 c 0,2.762 -2.238,5 -5,5 H 11 C 8.239,42 6,39.762 6,37 V 11 C 6,8.238 8.239,6 11,6 h 26 c 2.762,0 5,2.238 5,5 z"
     id="path2" /><g
     id="g10">
	<rect
   x="12"
   y="19"
   fill="#ffffff"
   width="5"
   height="17"
   id="rect4" />
	<path
   fill="#ffffff"
   d="M 14.485,17 H 14.457 C 12.965,17 12,15.888 12,14.499 12,13.08 12.995,12 14.514,12 16.035,12 16.972,13.08 17,14.499 17,15.887 16.035,17 14.485,17 Z"
   id="path6" />
	<path
   fill="#ffffff"
   d="m 36,36 h -5 v -9.099 c 0,-2.198 -1.225,-3.698 -3.192,-3.698 -1.501,0 -2.313,1.012 -2.707,1.99 C 24.957,25.543 25,26.511 25,27 v 9 H 20 V 19 h 5 v 2.616 C 25.721,20.5 26.85,19 29.738,19 c 3.578,0 6.261,2.25 6.261,7.274 z"
   id="path8" />
</g></g>
</svg>
