<?xml version="1.0" encoding="UTF-8" standalone="no"?>
<!-- Generator: Adobe Illustrator 19.1.0, SVG Export Plug-In . SVG Version: 6.00 Build 0)  -->

<svg
   version="1.1"
   x="0px"
   y="0px"
   viewBox="0 0 40.133411 40.304001"
   xml:space="preserve"
   id="svg570"
   sodipodi:docname="Whatsapp.svg"
   width="40.133411"
   height="40.304001"
   inkscape:version="1.2.2 (732a01da63, 2022-12-09)"
   xmlns:inkscape="http://www.inkscape.org/namespaces/inkscape"
   xmlns:sodipodi="http://sodipodi.sourceforge.net/DTD/sodipodi-0.dtd"
   xmlns="http://www.w3.org/2000/svg"
   xmlns:svg="http://www.w3.org/2000/svg"><defs
   id="defs574" /><sodipodi:namedview
   id="namedview572"
   pagecolor="#ffffff"
   bordercolor="#000000"
   borderopacity="0.25"
   inkscape:showpageshadow="2"
   inkscape:pageopacity="0.0"
   inkscape:pagecheckerboard="0"
   inkscape:deskcolor="#d1d1d1"
   showgrid="false"
   inkscape:zoom="16.75"
   inkscape:cx="17.940299"
   inkscape:cy="20.029851"
   inkscape:window-width="1920"
   inkscape:window-height="991"
   inkscape:window-x="-9"
   inkscape:window-y="-9"
   inkscape:window-maximized="1"
   inkscape:current-layer="svg570" />
<path
   style="fill:#ffffff"
   d="m 1.0004115,39.303 2.694,-9.835 c -1.662,-2.878 -2.536,-6.144 -2.535,-9.489 C 1.1644115,9.514 9.6804115,1 20.146411,1 c 5.079,0.002 9.845,1.979 13.43,5.566 3.584,3.588 5.558,8.356 5.556,13.428 -0.004,10.465 -8.522,18.98 -18.986,18.98 -0.001,0 0,0 0,0 h -0.008 c -3.177,-10e-4 -6.3,-0.798 -9.073,-2.311 z"
   id="path558" />
<g
   id="g564"
   transform="translate(-3.8675885,-4)">
	<path
   style="fill:#ffffff"
   d="m 4.868,43.803 c -0.132,0 -0.26,-0.052 -0.355,-0.148 C 4.388,43.528 4.339,43.343 4.386,43.172 L 7.025,33.536 C 5.389,30.63 4.526,27.33 4.528,23.98 4.532,13.238 13.273,4.5 24.014,4.5 c 5.21,0.002 10.105,2.031 13.784,5.713 3.679,3.683 5.704,8.577 5.702,13.781 -0.004,10.741 -8.746,19.48 -19.486,19.48 -3.189,-10e-4 -6.344,-0.788 -9.144,-2.277 l -9.875,2.589 c -0.042,0.012 -0.084,0.017 -0.127,0.017 z"
   id="path560" />
	<path
   style="fill:#cfd8dc"
   d="m 24.014,5 c 5.079,0.002 9.845,1.979 13.43,5.566 3.584,3.588 5.558,8.356 5.556,13.428 -0.004,10.465 -8.522,18.98 -18.986,18.98 h -0.008 c -3.177,-10e-4 -6.3,-0.798 -9.073,-2.311 L 4.868,43.303 7.562,33.468 C 5.9,30.59 5.026,27.324 5.027,23.979 5.032,13.514 13.548,5 24.014,5 m 0,37.974 c 0,0 0,0 0,0 0,0 0,0 0,0 m 0,0 c 0,0 0,0 0,0 0,0 0,0 0,0 M 24.014,4 c 0,0 0,0 0,0 C 12.998,4 4.032,12.962 4.027,23.979 4.026,27.346 4.876,30.664 6.488,33.601 L 3.903,43.04 c -0.094,0.345 0.002,0.713 0.254,0.967 0.19,0.192 0.447,0.297 0.711,0.297 0.085,0 0.17,-0.011 0.254,-0.033 l 9.687,-2.54 c 2.828,1.468 5.998,2.243 9.197,2.244 11.024,0 19.99,-8.963 19.995,-19.98 C 44.003,18.656 41.926,13.636 38.153,9.86 34.378,6.083 29.357,4.002 24.014,4 Z"
   id="path562" />
</g>
<path
   style="fill:#40c351"
   d="m 31.308411,8.832 c -2.98,-2.982 -6.941,-4.625 -11.157,-4.626 -8.704,0 -15.7829995,7.076 -15.7869995,15.774 -0.001,2.981 0.833,5.883 2.413,8.396 l 0.376,0.597 -1.595,5.821 5.9729995,-1.566 0.577,0.342 c 2.422,1.438 5.2,2.198 8.032,2.199 h 0.006 c 8.698,0 15.777,-7.077 15.78,-15.776 10e-4,-4.215 -1.638,-8.179 -4.618,-11.161 z"
   id="path566" />
<path
   style="clip-rule:evenodd;fill:#ffffff;fill-rule:evenodd"
   d="m 15.400411,12.045 c -0.355,-0.79 -0.729,-0.806 -1.068,-0.82 -0.277,-0.012 -0.593,-0.011 -0.909,-0.011 -0.316,0 -0.83,0.119 -1.265,0.594 -0.435,0.475 -1.661,1.622 -1.661,3.956 0,2.334 1.7,4.59 1.937,4.906 0.237,0.316 3.282,5.259 8.104,7.161 4.007,1.58 4.823,1.266 5.693,1.187 0.87,-0.079 2.807,-1.147 3.202,-2.255 0.395,-1.108 0.395,-2.057 0.277,-2.255 -0.119,-0.198 -0.435,-0.316 -0.909,-0.554 -0.474,-0.238 -2.807,-1.385 -3.242,-1.543 -0.435,-0.158 -0.751,-0.237 -1.068,0.238 -0.316,0.474 -1.225,1.543 -1.502,1.859 -0.277,0.317 -0.554,0.357 -1.028,0.119 -0.474,-0.238 -2.002,-0.738 -3.815,-2.354 -1.41,-1.257 -2.362,-2.81 -2.639,-3.285 -0.277,-0.474 -0.03,-0.731 0.208,-0.968 0.213,-0.213 0.474,-0.554 0.712,-0.831 0.237,-0.277 0.316,-0.475 0.474,-0.791 0.158,-0.317 0.079,-0.594 -0.04,-0.831 -0.117,-0.238 -1.039,-2.584 -1.461,-3.522 z"
   id="path568" />
</svg>
