<?xml version="1.0" encoding="UTF-8" standalone="no"?>
<!-- Generator: Adobe Illustrator 19.1.1, SVG Export Plug-In . SVG Version: 6.00 Build 0)  -->

<svg
   version="1.1"
   x="0px"
   y="0px"
   viewBox="0 0 40.099998 30"
   enable-background="new 0 0 48 48"
   xml:space="preserve"
   id="svg412"
   sodipodi:docname="YouTube.svg"
   width="40.099998"
   height="30"
   inkscape:version="1.2.2 (732a01da63, 2022-12-09)"
   xmlns:inkscape="http://www.inkscape.org/namespaces/inkscape"
   xmlns:sodipodi="http://sodipodi.sourceforge.net/DTD/sodipodi-0.dtd"
   xmlns="http://www.w3.org/2000/svg"
   xmlns:svg="http://www.w3.org/2000/svg"><defs
   id="defs416" /><sodipodi:namedview
   id="namedview414"
   pagecolor="#ffffff"
   bordercolor="#000000"
   borderopacity="0.25"
   inkscape:showpageshadow="2"
   inkscape:pageopacity="0.0"
   inkscape:pagecheckerboard="0"
   inkscape:deskcolor="#d1d1d1"
   showgrid="false"
   inkscape:zoom="16.75"
   inkscape:cx="17.820896"
   inkscape:cy="15.014925"
   inkscape:window-width="1920"
   inkscape:window-height="991"
   inkscape:window-x="-9"
   inkscape:window-y="-9"
   inkscape:window-maximized="1"
   inkscape:current-layer="svg412" />
<path
   fill="#ff3d00"
   d="M 39.2,24.9 C 38.8,27 37.1,28.6 35,28.9 31.7,29.4 26.2,30 20,30 13.9,30 8.4,29.4 5,28.9 2.9,28.6 1.2,27 0.8,24.9 0.4,22.6 0,19.2 0,15 0,10.8 0.4,7.4 0.8,5.1 1.2,3 2.9,1.4 5,1.1 8.3,0.6 13.8,0 20,0 c 6.2,0 11.6,0.6 15,1.1 2.1,0.3 3.8,1.9 4.2,4 0.4,2.3 0.9,5.7 0.9,9.9 -0.1,4.2 -0.5,7.6 -0.9,9.9 z"
   id="path408" />
<polygon
   fill="#ffffff"
   points="32,24 20,31 20,17 "
   id="polygon410"
   transform="translate(-4,-9)" />
</svg>
